<svg viewBox="0.00 153.23 800.00 281.38" xmlns="http://www.w3.org/2000/svg">
    <g id="section-content" transform="translate(0.00, 0)">
<g id="section-geometry">
    <rect x="340.22" y="284.80" width="169.91" height="16.86" stroke="#333333" stroke-width="0.5" fill="#B8D4E3"/>
    <rect x="340.22" y="301.66" width="169.91" height="9.97" stroke="#333333" stroke-width="0.5" fill="#F5F0E1"/>
    <rect x="340.22" y="311.62" width="169.91" height="1.45" stroke="#333333" stroke-width="0.5" fill="#E8E8E8"/>
    <rect x="340.22" y="313.07" width="169.91" height="22.66" stroke="#333333" stroke-width="0.5" fill="#A0A0A0"/>
    <rect x="340.22" y="335.73" width="169.91" height="11.33" stroke="#577590" stroke-width="0.5" stroke-dasharray="4,2" fill="none" opacity="0.7"/>
    <polygon points="226.94,216.83 408.18,216.83 408.18,284.80 340.22,284.80 340.22,352.77 226.94,352.77" stroke="#333333" stroke-width="2.5" fill="#8B6914"/>
  </g>
  <g id="section-dimensions">
    <line x1="220.94" y1="216.83" x2="204.94" y2="216.83" stroke="#333333" stroke-width="0.5"/>
    <line x1="220.94" y1="352.77" x2="204.94" y2="352.77" stroke="#333333" stroke-width="0.5"/>
    <polygon points="208.94,216.83 207.07,222.83 210.82,222.83" fill="#333333" data-arrow="true"/>
    <line x1="208.94" y1="222.83" x2="208.94" y2="346.77" stroke="#333333" stroke-width="0.75"/>
    <polygon points="208.94,352.77 210.82,346.77 207.07,346.77" fill="#333333" data-arrow="true"/>
    <text x="195.74" y="284.80" fill="#333333" font-family="Inter, system-ui, -apple-system, sans-serif" font-size="13px" text-anchor="middle" transform="rotate(-90 195.74 284.80)">Depth: 3/4"</text>
    <line x1="226.94" y1="210.83" x2="226.94" y2="180.83" stroke="#333333" stroke-width="0.5"/>
    <line x1="408.18" y1="210.83" x2="408.18" y2="180.83" stroke="#333333" stroke-width="0.5"/>
    <polygon points="226.94,184.83 232.94,186.71 232.94,182.96" fill="#333333" data-arrow="true"/>
    <line x1="232.94" y1="184.83" x2="402.18" y2="184.83" stroke="#333333" stroke-width="0.75"/>
    <polygon points="408.18,184.83 402.18,182.96 402.18,186.71" fill="#333333" data-arrow="true"/>
    <text transform="translate(317.56, 171.63)" fill="#333333" font-family="Inter, system-ui, -apple-system, sans-serif" font-size="13px" text-anchor="middle">Width: 1"</text>
    <rect x="340.22" y="284.80" width="67.97" height="67.97" fill="#FFFFFF" fill-opacity="0.5" stroke="none" rx="1"/>
    <polygon points="340.22,318.78 344.42,320.10 344.42,317.47" fill="#333333" data-arrow="true"/>
    <line x1="344.42" y1="318.78" x2="403.98" y2="318.78" stroke="#333333" stroke-width="0.5249999999999999"/>
    <polygon points="408.18,318.78 403.98,317.47 403.98,320.10" fill="#333333" data-arrow="true"/>
    <polygon points="374.20,284.80 372.89,289.00 375.51,289.00" fill="#333333" data-arrow="true"/>
    <line x1="374.20" y1="289.00" x2="374.20" y2="348.57" stroke="#333333" stroke-width="0.5249999999999999"/>
    <polygon points="374.20,352.77 375.51,348.57 372.89,348.57" fill="#333333" data-arrow="true"/>
    <polygon points="511.03,293.23 513.13,293.93 513.13,292.53" fill="#333333" data-arrow="true"/>
    <line x1="513.13" y1="293.23" x2="520.13" y2="293.23" stroke="#333333" stroke-width="0.35"/>
    <line x1="520.13" y1="293.23" x2="523.13" y2="273.68" stroke="#333333" stroke-width="0.35"/>
    <text transform="translate(528.13, 277.55)" fill="#333333" font-family="Inter, system-ui, -apple-system, sans-serif" font-size="11.0px">Glazing: 3/32"</text>
    <polygon points="511.03,306.64 513.13,307.34 513.13,305.94" fill="#333333" data-arrow="true"/>
    <line x1="513.13" y1="306.64" x2="520.13" y2="306.64" stroke="#333333" stroke-width="0.35"/>
    <line x1="520.13" y1="306.64" x2="523.13" y2="290.58" stroke="#333333" stroke-width="0.35"/>
    <text transform="translate(528.13, 294.45)" fill="#333333" font-family="Inter, system-ui, -apple-system, sans-serif" font-size="11.0px">Mat: 0.06"</text>
    <polygon points="511.03,312.35 513.13,313.05 513.13,311.65" fill="#333333" data-arrow="true"/>
    <line x1="513.13" y1="312.35" x2="520.13" y2="312.35" stroke="#333333" stroke-width="0.35"/>
    <line x1="520.13" y1="312.35" x2="523.13" y2="307.48" stroke="#333333" stroke-width="0.35"/>
    <text transform="translate(528.13, 311.35)" fill="#333333" font-family="Inter, system-ui, -apple-system, sans-serif" font-size="11.0px">Artwork: 0.01"</text>
    <polygon points="511.03,324.40 513.13,325.10 513.13,323.70" fill="#333333" data-arrow="true"/>
    <line x1="513.13" y1="324.40" x2="520.13" y2="324.40" stroke="#333333" stroke-width="0.35"/>
    <line x1="520.13" y1="324.40" x2="523.13" y2="324.38" stroke="#333333" stroke-width="0.35"/>
    <text transform="translate(528.13, 328.25)" fill="#333333" font-family="Inter, system-ui, -apple-system, sans-serif" font-size="11.0px">Backing: 1/8"</text>
    <line x1="528.13" y1="332.83" x2="610.76" y2="332.83" stroke="#577590" stroke-width="0.5"/>
    <text transform="translate(528.13, 345.15)" fill="#577590" font-family="Inter, system-ui, -apple-system, sans-serif" font-size="11.0px" font-weight="600">Total: 9/32"</text>
    <polygon points="511.03,341.39 513.13,342.09 513.13,340.69" fill="#333333" data-arrow="true"/>
    <line x1="513.13" y1="341.39" x2="520.13" y2="341.39" stroke="#333333" stroke-width="0.35"/>
    <line x1="520.13" y1="341.39" x2="523.13" y2="358.18" stroke="#333333" stroke-width="0.35"/>
    <text transform="translate(528.13, 362.05)" fill="#333333" font-family="Inter, system-ui, -apple-system, sans-serif" font-size="11.0px">Margin: 1/16"</text>
    <line x1="374.20" y1="354.77" x2="374.20" y2="362.77" stroke="#333333" stroke-width="0.5" stroke-dasharray="3,2"/>
    <text transform="translate(374.20, 374.87)" fill="#90be6d" font-family="Inter, system-ui, -apple-system, sans-serif" font-size="13px" text-anchor="middle">Rabbet: 3/8"</text>
    <text transform="translate(374.20, 390.47)" fill="#90be6d" font-family="Inter, system-ui, -apple-system, sans-serif" font-size="13px" text-anchor="middle">(clearance: 1/32")</text>
  </g>
  </g>
  <g id="legend">
    <rect x="196.45" y="401.02" width="12" height="12" fill="#8B6914" stroke="#333333" stroke-width="0.5"/>    <text transform="translate(216.45, 411.02)" fill="#577590" font-family="Inter, system-ui, -apple-system, sans-serif" font-size="13px">Frame</text>
    <rect x="268.20" y="401.02" width="12" height="12" fill="#B8D4E3" stroke="#333333" stroke-width="0.5"/>    <text transform="translate(288.20, 411.02)" fill="#577590" font-family="Inter, system-ui, -apple-system, sans-serif" font-size="13px">Glazing</text>
    <rect x="354.25" y="401.02" width="12" height="12" fill="#F5F0E1" stroke="#333333" stroke-width="0.5"/>    <text transform="translate(374.25, 411.02)" fill="#577590" font-family="Inter, system-ui, -apple-system, sans-serif" font-size="13px">Matboard</text>
    <rect x="447.45" y="401.02" width="12" height="12" fill="#E8E8E8" stroke="#333333" stroke-width="0.5"/>    <text transform="translate(467.45, 411.02)" fill="#577590" font-family="Inter, system-ui, -apple-system, sans-serif" font-size="13px">Artwork</text>
    <rect x="533.50" y="401.02" width="12" height="12" fill="#A0A0A0" stroke="#333333" stroke-width="0.5"/>    <text transform="translate(553.50, 411.02)" fill="#577590" font-family="Inter, system-ui, -apple-system, sans-serif" font-size="13px">Backing</text>
  </g>
</svg>