<svg viewBox="0 0 800.00 600.00" xmlns="http://www.w3.org/2000/svg">
  <g id="plan-view" transform="translate(76.75, 4.96) scale(0.8129)">
  <g id="geometry">
    <rect x="281.97" y="71.00" width="236.06" height="236.06" stroke="#333333" stroke-width="2.5" fill="none"/>
    <rect x="284.87" y="73.91" width="230.25" height="230.25" stroke="#333333" stroke-width="2.5" fill="none"/>
  </g>
  <g id="rabbet-overlap">
    <path d="M283.78,72.82 h232.43 v232.43 h-232.43 Z M284.87,73.91 v230.25 h230.25 v-230.25 Z" fill="#90be6d" fill-opacity="0.15" fill-rule="evenodd" stroke="none"/>
  </g>
  <g id="content-boundary">
    <rect x="283.78" y="72.82" width="232.43" height="232.43" stroke="#90be6d" stroke-width="0.5" stroke-dasharray="6,3" fill="none" opacity="0.5"/>
  </g>
  <g id="dimensions">
    <g class="dimension">
      <line x1="286.12" y1="69.16" x2="286.12" y2="45.00" stroke="#46af8f" stroke-width="0.5"/>
      <line x1="513.88" y1="69.16" x2="513.88" y2="45.00" stroke="#46af8f" stroke-width="0.5"/>
        <polygon points="286.12,49.00 292.12,50.88 292.12,47.12" fill="#46af8f" data-arrow="true"/>
        <line x1="292.12" y1="49.00" x2="507.88" y2="49.00" stroke="#46af8f" stroke-width="0.75"/>
        <polygon points="513.88,49.00 507.88,47.12 507.88,50.88" fill="#46af8f" data-arrow="true"/>
      <rect x="372.10" y="41.50" width="55.80" height="15.00" fill="#FFFFFF" stroke="none"/>
          <polygon points="286.12,49.00 292.12,50.88 292.12,47.12" fill="#46af8f" data-arrow="true"/>
          <polygon points="513.88,49.00 507.88,47.12 507.88,50.88" fill="#46af8f" data-arrow="true"/>
    </g>
    <g class="dimension">
      <line x1="280.72" y1="63.75" x2="280.72" y2="17.00" stroke="#577590" stroke-width="0.5"/>
      <line x1="519.28" y1="63.75" x2="519.28" y2="17.00" stroke="#577590" stroke-width="0.5"/>
        <polygon points="280.72,21.00 286.72,22.88 286.72,19.12" fill="#577590" data-arrow="true"/>
        <line x1="286.72" y1="21.00" x2="513.28" y2="21.00" stroke="#577590" stroke-width="0.75"/>
        <polygon points="519.28,21.00 513.28,19.12 513.28,22.88" fill="#577590" data-arrow="true"/>
      <rect x="367.28" y="13.50" width="65.44" height="15.00" fill="#FFFFFF" stroke="none"/>
          <polygon points="280.72,21.00 286.72,22.88 286.72,19.12" fill="#577590" data-arrow="true"/>
          <polygon points="519.28,21.00 513.28,19.12 513.28,22.88" fill="#577590" data-arrow="true"/>
    </g>
    <g class="dimension">
      <line x1="519.88" y1="75.16" x2="544.03" y2="75.16" stroke="#46af8f" stroke-width="0.5"/>
      <line x1="519.88" y1="302.91" x2="544.03" y2="302.91" stroke="#46af8f" stroke-width="0.5"/>
        <polygon points="540.03,75.16 538.16,81.16 541.91,81.16" fill="#46af8f" data-arrow="true"/>
        <line x1="540.03" y1="81.16" x2="540.03" y2="296.91" stroke="#46af8f" stroke-width="0.75"/>
        <polygon points="540.03,302.91 541.91,296.91 538.16,296.91" fill="#46af8f" data-arrow="true"/>
      <rect x="531.23" y="163.13" width="17.60" height="51.80" fill="#FFFFFF" stroke="none"/>
          <polygon points="540.03,75.16 538.16,81.16 541.91,81.16" fill="#46af8f" data-arrow="true"/>
          <polygon points="540.03,302.91 541.91,296.91 538.16,296.91" fill="#46af8f" data-arrow="true"/>
    </g>
    <g class="dimension">
      <line x1="525.28" y1="69.75" x2="572.03" y2="69.75" stroke="#577590" stroke-width="0.5"/>
      <line x1="525.28" y1="308.31" x2="572.03" y2="308.31" stroke="#577590" stroke-width="0.5"/>
        <polygon points="568.03,69.75 566.16,75.75 569.91,75.75" fill="#577590" data-arrow="true"/>
        <line x1="568.03" y1="75.75" x2="568.03" y2="302.31" stroke="#577590" stroke-width="0.75"/>
        <polygon points="568.03,308.31 569.91,302.31 566.16,302.31" fill="#577590" data-arrow="true"/>
      <rect x="560.53" y="158.31" width="15.00" height="61.44" fill="#FFFFFF" stroke="none"/>
          <polygon points="568.03,69.75 566.16,75.75 569.91,75.75" fill="#577590" data-arrow="true"/>
          <polygon points="568.03,308.31 569.91,302.31 566.16,302.31" fill="#577590" data-arrow="true"/>
    </g>
      <text transform="translate(400.00, 45.75)" fill="#46af8f" font-family="Inter, system-ui, -apple-system, sans-serif" font-size="13px" text-anchor="middle">Inside:</text>
      <text transform="translate(400.00, 61.35)" fill="#46af8f" font-family="Inter, system-ui, -apple-system, sans-serif" font-size="13px" text-anchor="middle">79 1/4"</text>
      <text transform="translate(400.00, 9.95)" fill="#577590" font-family="Inter, system-ui, -apple-system, sans-serif" font-size="13px" text-anchor="middle">Outside:</text>
      <text transform="translate(400.00, 25.55)" fill="#577590" font-family="Inter, system-ui, -apple-system, sans-serif" font-size="13px" text-anchor="middle">81 1/4"</text>
      <text transform="rotate(90 547.83 189.03)" x="547.83" y="193.58" fill="#46af8f" font-family="Inter, system-ui, -apple-system, sans-serif" font-size="13px" text-anchor="middle">Inside:</text>
      <text transform="rotate(90 532.23 189.03)" x="532.23" y="193.58" fill="#46af8f" font-family="Inter, system-ui, -apple-system, sans-serif" font-size="13px" text-anchor="middle">79 1/4"</text>
      <text transform="rotate(90 583.63 189.03)" x="583.63" y="193.58" fill="#577590" font-family="Inter, system-ui, -apple-system, sans-serif" font-size="13px" text-anchor="middle">Outside:</text>
      <text transform="rotate(90 568.03 189.03)" x="568.03" y="193.58" fill="#577590" font-family="Inter, system-ui, -apple-system, sans-serif" font-size="13px" text-anchor="middle">81 1/4"</text>
  </g>
  <g id="artwork-indicator">
    <polygon points="283.98,189.03 288.18,190.34 288.18,187.72" fill="#90be6d" data-arrow="true"/>
    <line x1="288.18" y1="189.03" x2="368.14" y2="189.03" stroke="#90be6d" stroke-width="0.5249999999999999"/>
    <line x1="431.86" y1="189.03" x2="511.82" y2="189.03" stroke="#90be6d" stroke-width="0.5249999999999999"/>
    <polygon points="516.02,189.03 511.82,187.72 511.82,190.34" fill="#90be6d" data-arrow="true"/>
    <polygon points="400.00,73.02 398.69,77.22 401.31,77.22" fill="#90be6d" data-arrow="true"/>
    <line x1="400.00" y1="77.22" x2="400.00" y2="178.58" stroke="#90be6d" stroke-width="0.5249999999999999"/>
    <line x1="400.00" y1="199.48" x2="400.00" y2="300.85" stroke="#90be6d" stroke-width="0.5249999999999999"/>
    <polygon points="400.00,305.05 401.31,300.85 398.69,300.85" fill="#90be6d" data-arrow="true"/>
    <rect x="368.14" y="178.58" width="63.72" height="20.90" fill="#FFFFFF" fill-opacity="0.75" stroke="none" rx="2"/>
    <text transform="translate(400.00, 193.58)" fill="#90be6d" font-family="Inter, system-ui, -apple-system, sans-serif" font-size="13.00px" text-anchor="middle">80" × 80"</text>
  </g>
  <g id="corner-detail">
    <defs><clipPath id="corner-detail-clip"><rect x="209.15" y="219.03" width="180.85" height="136.22"/></clipPath></defs>
    <rect x="205.15" y="195.03" width="188.85" height="164.22" fill="#FFFFFF" stroke="#999" stroke-width="0.75" rx="4"/>
    <text transform="translate(299.57, 210.83)" fill="#555" font-family="Inter, system-ui, -apple-system, sans-serif" font-size="10.8" font-weight="bold" text-anchor="middle">Corner Detail</text>
    <g clip-path="url(#corner-detail-clip)">
    <path d="M286.59,225.03 V295.05 H378.00 V280.18 H301.46 V225.03 H286.59 Z" fill="#90be6d" fill-opacity="0.10" stroke="none"/>
    <line x1="286.59" y1="295.05" x2="378.00" y2="295.05" stroke="#90be6d" stroke-width="1" stroke-dasharray="6,3" opacity="0.7"/>
    <line x1="286.59" y1="295.05" x2="286.59" y2="225.03" stroke="#90be6d" stroke-width="1" stroke-dasharray="6,3" opacity="0.7"/>
    <polyline points="261.80,225.03 261.80,319.84 378.00,319.84" fill="none" stroke="#333333" stroke-width="2.5" stroke-linejoin="miter"/>
    <polyline points="301.46,225.03 301.46,280.18 378.00,280.18" fill="none" stroke="#333333" stroke-width="2.5" stroke-linejoin="miter"/>
    </g>
    <defs><clipPath id="corner-detail-annot-clip"><rect x="207.15" y="197.03" width="184.85" height="160.22"/></clipPath></defs>
    <g clip-path="url(#corner-detail-annot-clip)">
    <line x1="261.80" y1="319.84" x2="261.80" y2="337.84" stroke="#577590" stroke-width="0.5" opacity="0.5"/>
    <line x1="301.46" y1="319.84" x2="301.46" y2="337.84" stroke="#577590" stroke-width="0.5" opacity="0.5"/>
    <polygon points="261.80,335.84 267.80,337.71 267.80,333.96" fill="#577590" data-arrow="true"/>
    <line x1="267.80" y1="335.84" x2="295.46" y2="335.84" stroke="#577590" stroke-width="0.75"/>
    <polygon points="301.46,335.84 295.46,333.96 295.46,337.71" fill="#577590" data-arrow="true"/>
    <text transform="translate(281.63, 346.84)" font-family="Inter, system-ui, -apple-system, sans-serif" font-size="9.0px" fill="#577590" font-weight="bold" text-anchor="middle">Frame: 1"</text>
    <line x1="286.59" y1="280.18" x2="251.08" y2="280.18" stroke="#46af8f" stroke-width="0.5" opacity="0.5"/>
    <line x1="286.59" y1="295.05" x2="251.08" y2="295.05" stroke="#46af8f" stroke-width="0.5" opacity="0.5"/>
    <line x1="253.08" y1="265.18" x2="253.08" y2="274.18" stroke="#46af8f" stroke-width="0.75"/>
    <polygon points="253.08,280.18 254.95,274.18 251.20,274.18" fill="#46af8f" data-arrow="true"/>
    <line x1="253.08" y1="310.05" x2="253.08" y2="301.05" stroke="#46af8f" stroke-width="0.75"/>
    <polygon points="253.08,295.05 251.20,301.05 254.95,301.05" fill="#46af8f" data-arrow="true"/>
    <text transform="translate(249.08, 286.62)" font-family="Inter, system-ui, -apple-system, sans-serif" font-size="9.0px" fill="#46af8f" text-anchor="end" font-weight="bold">Rabbet</text>
    <text transform="translate(249.08, 297.62)" font-family="Inter, system-ui, -apple-system, sans-serif" font-size="9.0px" fill="#46af8f" text-anchor="end" font-weight="bold">3/8"</text>
    <line x1="332.30" y1="295.05" x2="332.30" y2="247.25" stroke="#90be6d" stroke-width="0.5" opacity="0.5"/>
    <rect x="313.65" y="238.96" width="37.29" height="9.72" fill="#FFFFFF" stroke="none" rx="1"/>
    <text transform="translate(332.30, 246.04)" fill="#90be6d" font-family="Inter, system-ui, -apple-system, sans-serif" font-size="8.1" text-anchor="middle" font-weight="bold" opacity="0.8">artwork</text>
    </g>
  </g>
</g>
  <g id="section-view" transform="translate(0.00, 308.18) scale(1.0000)">
    <g id="section-content" transform="translate(0.00, 0)">
<g id="section-geometry">
    <rect x="347.18" y="128.77" width="177.22" height="17.58" stroke="#333333" stroke-width="0.5" fill="#B8D4E3"/>
    <rect x="347.18" y="146.35" width="177.22" height="1.51" stroke="#333333" stroke-width="0.5" fill="#E8E8E8"/>
    <rect x="347.18" y="147.86" width="177.22" height="23.63" stroke="#333333" stroke-width="0.5" fill="#A0A0A0"/>
    <rect x="347.18" y="171.49" width="177.22" height="11.81" stroke="#577590" stroke-width="0.5" stroke-dasharray="4,2" fill="none" opacity="0.7"/>
    <polygon points="229.04,57.88 418.07,57.88 418.07,128.77 347.18,128.77 347.18,199.66 229.04,199.66" stroke="#333333" stroke-width="2.5" fill="#8B6914"/>
  </g>
  <g id="section-dimensions">
    <line x1="223.04" y1="57.88" x2="207.04" y2="57.88" stroke="#333333" stroke-width="0.5"/>
    <line x1="223.04" y1="199.66" x2="207.04" y2="199.66" stroke="#333333" stroke-width="0.5"/>
    <polygon points="211.04,57.88 209.16,63.88 212.91,63.88" fill="#333333" data-arrow="true"/>
    <line x1="211.04" y1="63.88" x2="211.04" y2="193.66" stroke="#333333" stroke-width="0.75"/>
    <polygon points="211.04,199.66 212.91,193.66 209.16,193.66" fill="#333333" data-arrow="true"/>
    <text x="199.04" y="128.77" fill="#333333" font-family="Inter, system-ui, -apple-system, sans-serif" font-size="10px" text-anchor="middle" transform="rotate(-90 199.04 128.77)">Depth: 3/4"</text>
    <line x1="229.04" y1="51.88" x2="229.04" y2="21.88" stroke="#333333" stroke-width="0.5"/>
    <line x1="418.07" y1="51.88" x2="418.07" y2="21.88" stroke="#333333" stroke-width="0.5"/>
    <polygon points="229.04,25.88 235.04,27.75 235.04,24.00" fill="#333333" data-arrow="true"/>
    <line x1="235.04" y1="25.88" x2="412.07" y2="25.88" stroke="#333333" stroke-width="0.75"/>
    <polygon points="418.07,25.88 412.07,24.00 412.07,27.75" fill="#333333" data-arrow="true"/>
    <text transform="translate(323.55, 13.88)" fill="#333333" font-family="Inter, system-ui, -apple-system, sans-serif" font-size="10px" text-anchor="middle">Width: 1"</text>
    <rect x="347.18" y="128.77" width="70.89" height="70.89" fill="#FFFFFF" fill-opacity="0.5" stroke="none" rx="1"/>
    <polygon points="347.18,164.21 351.38,165.52 351.38,162.90" fill="#333333" data-arrow="true"/>
    <line x1="351.38" y1="164.21" x2="413.87" y2="164.21" stroke="#333333" stroke-width="0.5249999999999999"/>
    <polygon points="418.07,164.21 413.87,162.90 413.87,165.52" fill="#333333" data-arrow="true"/>
    <polygon points="382.63,128.77 381.31,132.97 383.94,132.97" fill="#333333" data-arrow="true"/>
    <line x1="382.63" y1="132.97" x2="382.63" y2="195.46" stroke="#333333" stroke-width="0.5249999999999999"/>
    <polygon points="382.63,199.66 383.94,195.46 381.31,195.46" fill="#333333" data-arrow="true"/>
    <polygon points="525.30,137.56 527.40,138.26 527.40,136.86" fill="#333333" data-arrow="true"/>
    <line x1="527.40" y1="137.56" x2="534.40" y2="137.56" stroke="#333333" stroke-width="0.35"/>
    <line x1="534.40" y1="137.56" x2="537.40" y2="124.04" stroke="#333333" stroke-width="0.35"/>
    <text transform="translate(542.40, 127.01)" fill="#333333" font-family="Inter, system-ui, -apple-system, sans-serif" font-size="8.5px">Glazing: 3/32"</text>
    <polygon points="525.30,147.10 527.40,147.80 527.40,146.40" fill="#333333" data-arrow="true"/>
    <line x1="527.40" y1="147.10" x2="534.40" y2="147.10" stroke="#333333" stroke-width="0.35"/>
    <line x1="534.40" y1="147.10" x2="537.40" y2="140.04" stroke="#333333" stroke-width="0.35"/>
    <text transform="translate(542.40, 143.01)" fill="#333333" font-family="Inter, system-ui, -apple-system, sans-serif" font-size="8.5px">Artwork: 0.01"</text>
    <polygon points="525.30,159.67 527.40,160.37 527.40,158.97" fill="#333333" data-arrow="true"/>
    <line x1="527.40" y1="159.67" x2="534.40" y2="159.67" stroke="#333333" stroke-width="0.35"/>
    <line x1="534.40" y1="159.67" x2="537.40" y2="156.04" stroke="#333333" stroke-width="0.35"/>
    <text transform="translate(542.40, 159.01)" fill="#333333" font-family="Inter, system-ui, -apple-system, sans-serif" font-size="8.5px">Backing: 1/8"</text>
    <line x1="542.40" y1="164.04" x2="605.96" y2="164.04" stroke="#577590" stroke-width="0.5"/>
    <text transform="translate(542.40, 175.01)" fill="#577590" font-family="Inter, system-ui, -apple-system, sans-serif" font-size="8.5px" font-weight="600">Total: 0.23"</text>
    <polygon points="525.30,177.40 527.40,178.10 527.40,176.70" fill="#333333" data-arrow="true"/>
    <line x1="527.40" y1="177.40" x2="534.40" y2="177.40" stroke="#333333" stroke-width="0.35"/>
    <line x1="534.40" y1="177.40" x2="537.40" y2="188.04" stroke="#333333" stroke-width="0.35"/>
    <text transform="translate(542.40, 191.01)" fill="#333333" font-family="Inter, system-ui, -apple-system, sans-serif" font-size="8.5px">Margin: 1/16"</text>
    <line x1="382.63" y1="201.66" x2="382.63" y2="209.66" stroke="#333333" stroke-width="0.5" stroke-dasharray="3,2"/>
    <text transform="translate(382.63, 219.66)" fill="#90be6d" font-family="Inter, system-ui, -apple-system, sans-serif" font-size="10px" text-anchor="middle">Rabbet: 3/8"</text>
    <text transform="translate(382.63, 231.66)" fill="#90be6d" font-family="Inter, system-ui, -apple-system, sans-serif" font-size="10px" text-anchor="middle">(clearance: 0.09")</text>
  </g>
  </g>
  <g id="legend">
    <rect x="264.50" y="244.06" width="12" height="12" fill="#8B6914" stroke="#333333" stroke-width="0.5"/>    <text transform="translate(284.50, 254.06)" fill="#577590" font-family="Inter, system-ui, -apple-system, sans-serif" font-size="10px">Frame</text>
    <rect x="328.00" y="244.06" width="12" height="12" fill="#B8D4E3" stroke="#333333" stroke-width="0.5"/>    <text transform="translate(348.00, 254.06)" fill="#577590" font-family="Inter, system-ui, -apple-system, sans-serif" font-size="10px">Glazing</text>
    <rect x="402.50" y="244.06" width="12" height="12" fill="#E8E8E8" stroke="#333333" stroke-width="0.5"/>    <text transform="translate(422.50, 254.06)" fill="#577590" font-family="Inter, system-ui, -apple-system, sans-serif" font-size="10px">Artwork</text>
    <rect x="477.00" y="244.06" width="12" height="12" fill="#A0A0A0" stroke="#333333" stroke-width="0.5"/>    <text transform="translate(497.00, 254.06)" fill="#577590" font-family="Inter, system-ui, -apple-system, sans-serif" font-size="10px">Backing</text>
  </g>
</g>
</svg>