<svg viewBox="3.25 112.93 793.50 358.13" xmlns="http://www.w3.org/2000/svg">
    <g id="section-content" transform="translate(3.25, 0)">
<g id="section-geometry">
    <rect x="370.50" y="284.80" width="270.67" height="26.85" stroke="#333333" stroke-width="0.5" fill="#B8D4E3"/>
    <rect x="370.50" y="311.65" width="270.67" height="15.88" stroke="#333333" stroke-width="0.5" fill="#F5F0E1"/>
    <rect x="370.50" y="327.53" width="270.67" height="2.31" stroke="#333333" stroke-width="0.5" fill="#E8E8E8"/>
    <rect x="370.50" y="329.84" width="270.67" height="36.09" stroke="#333333" stroke-width="0.5" fill="#A0A0A0"/>
    <rect x="370.50" y="365.93" width="270.67" height="18.04" stroke="#577590" stroke-width="0.5" stroke-dasharray="4,2" fill="none" opacity="0.7"/>
    <polygon points="45.70,176.53 478.77,176.53 478.77,284.80 370.50,284.80 370.50,393.07 45.70,393.07" stroke="#333333" stroke-width="2.5" fill="#8B6914"/>
  </g>
  <g id="section-dimensions">
    <line x1="39.70" y1="176.53" x2="23.70" y2="176.53" stroke="#333333" stroke-width="0.5"/>
    <line x1="39.70" y1="393.07" x2="23.70" y2="393.07" stroke="#333333" stroke-width="0.5"/>
    <polygon points="27.70,176.53 25.83,182.53 29.58,182.53" fill="#333333" data-arrow="true"/>
    <line x1="27.70" y1="182.53" x2="27.70" y2="387.07" stroke="#333333" stroke-width="0.75"/>
    <polygon points="27.70,393.07 29.58,387.07 25.83,387.07" fill="#333333" data-arrow="true"/>
    <text x="14.50" y="284.80" fill="#333333" font-family="Inter, system-ui, -apple-system, sans-serif" font-size="13px" text-anchor="middle" transform="rotate(-90 14.50 284.80)">Depth: 3/4"</text>
    <line x1="45.70" y1="170.53" x2="45.70" y2="140.53" stroke="#333333" stroke-width="0.5"/>
    <line x1="478.77" y1="170.53" x2="478.77" y2="140.53" stroke="#333333" stroke-width="0.5"/>
    <polygon points="45.70,144.53 51.70,146.41 51.70,142.66" fill="#333333" data-arrow="true"/>
    <line x1="51.70" y1="144.53" x2="472.77" y2="144.53" stroke="#333333" stroke-width="0.75"/>
    <polygon points="478.77,144.53 472.77,142.66 472.77,146.41" fill="#333333" data-arrow="true"/>
    <text transform="translate(262.23, 131.33)" fill="#333333" font-family="Inter, system-ui, -apple-system, sans-serif" font-size="13px" text-anchor="middle">Width: 1 1/2"</text>
    <rect x="370.50" y="284.80" width="108.27" height="108.27" fill="#FFFFFF" fill-opacity="0.5" stroke="none" rx="1"/>
    <polygon points="370.50,338.93 374.70,340.25 374.70,337.62" fill="#333333" data-arrow="true"/>
    <line x1="374.70" y1="338.93" x2="474.57" y2="338.93" stroke="#333333" stroke-width="0.5249999999999999"/>
    <polygon points="478.77,338.93 474.57,337.62 474.57,340.25" fill="#333333" data-arrow="true"/>
    <polygon points="424.64,284.80 423.32,289.00 425.95,289.00" fill="#333333" data-arrow="true"/>
    <line x1="424.64" y1="289.00" x2="424.64" y2="388.87" stroke="#333333" stroke-width="0.5249999999999999"/>
    <polygon points="424.64,393.07 425.95,388.87 423.32,388.87" fill="#333333" data-arrow="true"/>
    <polygon points="642.07,298.23 644.17,298.93 644.17,297.53" fill="#333333" data-arrow="true"/>
    <line x1="644.17" y1="298.23" x2="651.17" y2="298.23" stroke="#333333" stroke-width="0.35"/>
    <line x1="651.17" y1="298.23" x2="654.17" y2="292.79" stroke="#333333" stroke-width="0.35"/>
    <text transform="translate(659.17, 296.65)" fill="#333333" font-family="Inter, system-ui, -apple-system, sans-serif" font-size="11.0px">Glazing: 3/32"</text>
    <polygon points="642.07,319.59 644.17,320.29 644.17,318.89" fill="#333333" data-arrow="true"/>
    <line x1="644.17" y1="319.59" x2="651.17" y2="319.59" stroke="#333333" stroke-width="0.35"/>
    <line x1="651.17" y1="319.59" x2="654.17" y2="313.59" stroke="#333333" stroke-width="0.35"/>
    <text transform="translate(659.17, 317.45)" fill="#333333" font-family="Inter, system-ui, -apple-system, sans-serif" font-size="11.0px">Mat: 0.06"</text>
    <polygon points="642.07,328.68 644.17,329.38 644.17,327.98" fill="#333333" data-arrow="true"/>
    <line x1="644.17" y1="328.68" x2="651.17" y2="328.68" stroke="#333333" stroke-width="0.35"/>
    <line x1="651.17" y1="328.68" x2="654.17" y2="334.39" stroke="#333333" stroke-width="0.35"/>
    <text transform="translate(659.17, 338.25)" fill="#333333" font-family="Inter, system-ui, -apple-system, sans-serif" font-size="11.0px">Artwork: 0.01"</text>
    <polygon points="642.07,347.88 644.17,348.58 644.17,347.18" fill="#333333" data-arrow="true"/>
    <line x1="644.17" y1="347.88" x2="651.17" y2="347.88" stroke="#333333" stroke-width="0.35"/>
    <line x1="651.17" y1="347.88" x2="654.17" y2="355.19" stroke="#333333" stroke-width="0.35"/>
    <text transform="translate(659.17, 359.05)" fill="#333333" font-family="Inter, system-ui, -apple-system, sans-serif" font-size="11.0px">Backing: 1/8"</text>
    <polygon points="642.07,374.95 644.17,375.65 644.17,374.25" fill="#333333" data-arrow="true"/>
    <line x1="644.17" y1="374.95" x2="651.17" y2="374.95" stroke="#333333" stroke-width="0.35"/>
    <line x1="651.17" y1="374.95" x2="654.17" y2="375.99" stroke="#333333" stroke-width="0.35"/>
    <text transform="translate(659.17, 379.85)" fill="#333333" font-family="Inter, system-ui, -apple-system, sans-serif" font-size="11.0px">Margin: 1/16"</text>
    <line x1="751.80" y1="284.80" x2="765.80" y2="284.80" stroke="#333333" stroke-width="0.5"/>
    <line x1="751.80" y1="365.93" x2="765.80" y2="365.93" stroke="#333333" stroke-width="0.5"/>
    <polygon points="761.80,284.80 759.93,290.80 763.68,290.80" fill="#333333" data-arrow="true"/>
    <line x1="761.80" y1="290.80" x2="761.80" y2="359.93" stroke="#333333" stroke-width="0.75"/>
    <polygon points="761.80,365.93 763.68,359.93 759.93,359.93" fill="#333333" data-arrow="true"/>
    <text x="779.00" y="325.36" fill="#333333" font-family="Inter, system-ui, -apple-system, sans-serif" font-size="13px" text-anchor="middle" transform="rotate(-90 779.00 325.36)">9/32"</text>
    <line x1="424.64" y1="395.07" x2="424.64" y2="403.07" stroke="#333333" stroke-width="0.5" stroke-dasharray="3,2"/>
    <text transform="translate(424.64, 415.17)" fill="#90be6d" font-family="Inter, system-ui, -apple-system, sans-serif" font-size="13px" text-anchor="middle">Rabbet: 3/8"</text>
    <text transform="translate(424.64, 430.77)" fill="#90be6d" font-family="Inter, system-ui, -apple-system, sans-serif" font-size="13px" text-anchor="middle">(clearance: 1/32")</text>
  </g>
  </g>
  <g id="legend">
    <rect x="196.45" y="437.47" width="12" height="12" fill="#8B6914" stroke="#333333" stroke-width="0.5"/>    <text transform="translate(216.45, 447.47)" fill="#577590" font-family="Inter, system-ui, -apple-system, sans-serif" font-size="13px">Frame</text>
    <rect x="268.20" y="437.47" width="12" height="12" fill="#B8D4E3" stroke="#333333" stroke-width="0.5"/>    <text transform="translate(288.20, 447.47)" fill="#577590" font-family="Inter, system-ui, -apple-system, sans-serif" font-size="13px">Glazing</text>
    <rect x="354.25" y="437.47" width="12" height="12" fill="#F5F0E1" stroke="#333333" stroke-width="0.5"/>    <text transform="translate(374.25, 447.47)" fill="#577590" font-family="Inter, system-ui, -apple-system, sans-serif" font-size="13px">Matboard</text>
    <rect x="447.45" y="437.47" width="12" height="12" fill="#E8E8E8" stroke="#333333" stroke-width="0.5"/>    <text transform="translate(467.45, 447.47)" fill="#577590" font-family="Inter, system-ui, -apple-system, sans-serif" font-size="13px">Artwork</text>
    <rect x="533.50" y="437.47" width="12" height="12" fill="#A0A0A0" stroke="#333333" stroke-width="0.5"/>    <text transform="translate(553.50, 447.47)" fill="#577590" font-family="Inter, system-ui, -apple-system, sans-serif" font-size="13px">Backing</text>
  </g>
</svg>