<svg viewBox="0 0 800.00 600.00" xmlns="http://www.w3.org/2000/svg">
  <g id="plan-view" transform="translate(-109.89, 11.56) scale(0.8899)">
  <g id="geometry">
    <rect x="270.25" y="71.00" width="259.50" height="220.70" stroke="#333333" stroke-width="2.5" fill="none"/>
    <rect x="284.80" y="85.55" width="230.40" height="191.59" stroke="#333333" stroke-width="2.5" fill="none"/>
    <rect x="304.20" y="104.95" width="191.59" height="152.79" stroke="#333333" stroke-width="1.5" fill="none"/>
    <rect x="302.99" y="103.74" width="194.02" height="155.22" stroke="#90be6d" stroke-width="0.5" stroke-dasharray="4,2" fill="none" opacity="0.6"/>
  </g>
  <g id="rabbet-overlap">
    <path d="M281.16,81.91 h237.67 v198.87 h-237.67 Z M284.80,85.55 v191.59 h230.40 v-191.59 Z" fill="#f8961e" fill-opacity="0.15" fill-rule="evenodd" stroke="none"/>
  </g>
  <g id="content-boundary">
    <rect x="281.16" y="81.91" width="237.67" height="198.87" stroke="#f8961e" stroke-width="0.5" stroke-dasharray="6,3" fill="none" opacity="0.5"/>
  </g>
  <g id="mat-overlap">
    <path d="M302.99,103.74 h194.02 v155.22 h-194.02 Z M304.20,104.95 v152.79 h191.59 v-152.79 Z" fill="#888888" fill-opacity="0.12" fill-rule="evenodd" stroke="none"/>
    <rect x="302.99" y="103.74" width="194.02" height="155.22" fill="none" stroke="#888888" stroke-width="0.40" stroke-dasharray="3,2" stroke-opacity="0.4"/>
  </g>
  <g id="hanging-hardware">
    <polyline points="277.53,144.57 400.00,88.44 522.47,144.57" fill="none" stroke="#333333" stroke-width="1.5"/>
    <circle cx="277.53" cy="144.57" r="5" fill="#577590"/>
    <circle cx="522.47" cy="144.57" r="5" fill="#577590"/>
    <path d="M400.00,88.44 l-6,-10 h12 Z" fill="#f3722c"/>
    <line x1="400.00" y1="71.00" x2="400.00" y2="78.44" stroke="#f3722c" stroke-width="0.8" stroke-dasharray="4,3"/>
  </g>
  <g id="spline-corners">
    <line x1="289.65" y1="71.00" x2="270.25" y2="90.40" stroke="#46af8f" stroke-width="2" stroke-dasharray="5,3"/>
    <line x1="510.35" y1="71.00" x2="529.75" y2="90.40" stroke="#46af8f" stroke-width="2" stroke-dasharray="5,3"/>
    <line x1="289.65" y1="291.70" x2="270.25" y2="272.30" stroke="#46af8f" stroke-width="2" stroke-dasharray="5,3"/>
    <line x1="510.35" y1="291.70" x2="529.75" y2="272.30" stroke="#46af8f" stroke-width="2" stroke-dasharray="5,3"/>
  </g>
  <g id="dimensions">
    <g class="dimension">
      <line x1="286.05" y1="80.80" x2="286.05" y2="45.00" stroke="#46af8f" stroke-width="0.5"/>
      <line x1="513.95" y1="80.80" x2="513.95" y2="45.00" stroke="#46af8f" stroke-width="0.5"/>
        <polygon points="286.05,49.00 292.05,50.88 292.05,47.12" fill="#46af8f" data-arrow="true"/>
        <line x1="292.05" y1="49.00" x2="507.95" y2="49.00" stroke="#46af8f" stroke-width="0.75"/>
        <polygon points="513.95,49.00 507.95,47.12 507.95,50.88" fill="#46af8f" data-arrow="true"/>
      <rect x="372.10" y="41.50" width="55.80" height="15.00" fill="#FFFFFF" stroke="none"/>
          <polygon points="286.05,49.00 292.05,50.88 292.05,47.12" fill="#46af8f" data-arrow="true"/>
          <polygon points="513.95,49.00 507.95,47.12 507.95,50.88" fill="#46af8f" data-arrow="true"/>
    </g>
    <g class="dimension">
      <line x1="269.00" y1="63.75" x2="269.00" y2="17.00" stroke="#577590" stroke-width="0.5"/>
      <line x1="531.00" y1="63.75" x2="531.00" y2="17.00" stroke="#577590" stroke-width="0.5"/>
        <polygon points="269.00,21.00 275.00,22.88 275.00,19.12" fill="#577590" data-arrow="true"/>
        <line x1="275.00" y1="21.00" x2="525.00" y2="21.00" stroke="#577590" stroke-width="0.75"/>
        <polygon points="531.00,21.00 525.00,19.12 525.00,22.88" fill="#577590" data-arrow="true"/>
      <rect x="367.28" y="13.50" width="65.44" height="15.00" fill="#FFFFFF" stroke="none"/>
          <polygon points="269.00,21.00 275.00,22.88 275.00,19.12" fill="#577590" data-arrow="true"/>
          <polygon points="531.00,21.00 525.00,19.12 525.00,22.88" fill="#577590" data-arrow="true"/>
    </g>
    <g class="dimension">
      <line x1="519.95" y1="86.80" x2="555.75" y2="86.80" stroke="#46af8f" stroke-width="0.5"/>
      <line x1="519.95" y1="275.90" x2="555.75" y2="275.90" stroke="#46af8f" stroke-width="0.5"/>
        <polygon points="551.75,86.80 549.88,92.80 553.63,92.80" fill="#46af8f" data-arrow="true"/>
        <line x1="551.75" y1="92.80" x2="551.75" y2="269.90" stroke="#46af8f" stroke-width="0.75"/>
        <polygon points="551.75,275.90 553.63,269.90 549.88,269.90" fill="#46af8f" data-arrow="true"/>
      <rect x="542.95" y="155.45" width="17.60" height="51.80" fill="#FFFFFF" stroke="none"/>
          <polygon points="551.75,86.80 549.88,92.80 553.63,92.80" fill="#46af8f" data-arrow="true"/>
          <polygon points="551.75,275.90 553.63,269.90 549.88,269.90" fill="#46af8f" data-arrow="true"/>
    </g>
    <g class="dimension">
      <line x1="537.00" y1="69.75" x2="583.75" y2="69.75" stroke="#577590" stroke-width="0.5"/>
      <line x1="537.00" y1="292.95" x2="583.75" y2="292.95" stroke="#577590" stroke-width="0.5"/>
        <polygon points="579.75,69.75 577.88,75.75 581.63,75.75" fill="#577590" data-arrow="true"/>
        <line x1="579.75" y1="75.75" x2="579.75" y2="286.95" stroke="#577590" stroke-width="0.75"/>
        <polygon points="579.75,292.95 581.63,286.95 577.88,286.95" fill="#577590" data-arrow="true"/>
      <rect x="572.25" y="150.63" width="15.00" height="61.44" fill="#FFFFFF" stroke="none"/>
          <polygon points="579.75,69.75 577.88,75.75 581.63,75.75" fill="#577590" data-arrow="true"/>
          <polygon points="579.75,292.95 581.63,286.95 577.88,286.95" fill="#577590" data-arrow="true"/>
    </g>
      <text transform="translate(400.00, 45.75)" fill="#46af8f" font-family="Inter, system-ui, -apple-system, sans-serif" font-size="13px" text-anchor="middle">Inside:</text>
      <text transform="translate(400.00, 61.35)" fill="#46af8f" font-family="Inter, system-ui, -apple-system, sans-serif" font-size="13px" text-anchor="middle">23 3/4"</text>
      <text transform="translate(400.00, 9.95)" fill="#577590" font-family="Inter, system-ui, -apple-system, sans-serif" font-size="13px" text-anchor="middle">Outside:</text>
      <text transform="translate(400.00, 25.55)" fill="#577590" font-family="Inter, system-ui, -apple-system, sans-serif" font-size="13px" text-anchor="middle">26 3/4"</text>
      <text transform="rotate(90 559.55 181.35)" x="559.55" y="185.90" fill="#46af8f" font-family="Inter, system-ui, -apple-system, sans-serif" font-size="13px" text-anchor="middle">Inside:</text>
      <text transform="rotate(90 543.95 181.35)" x="543.95" y="185.90" fill="#46af8f" font-family="Inter, system-ui, -apple-system, sans-serif" font-size="13px" text-anchor="middle">19 3/4"</text>
      <text transform="rotate(90 595.35 181.35)" x="595.35" y="185.90" fill="#577590" font-family="Inter, system-ui, -apple-system, sans-serif" font-size="13px" text-anchor="middle">Outside:</text>
      <text transform="rotate(90 579.75 181.35)" x="579.75" y="185.90" fill="#577590" font-family="Inter, system-ui, -apple-system, sans-serif" font-size="13px" text-anchor="middle">22 3/4"</text>
  </g>
  <g id="artwork-indicator">
    <polygon points="303.19,181.35 307.39,182.66 307.39,180.04" fill="#90be6d" data-arrow="true"/>
    <line x1="307.39" y1="181.35" x2="369.48" y2="181.35" stroke="#90be6d" stroke-width="0.5249999999999999"/>
    <line x1="430.52" y1="181.35" x2="492.61" y2="181.35" stroke="#90be6d" stroke-width="0.5249999999999999"/>
    <polygon points="496.81,181.35 492.61,180.04 492.61,182.66" fill="#90be6d" data-arrow="true"/>
    <polygon points="400.00,103.94 398.69,108.14 401.31,108.14" fill="#90be6d" data-arrow="true"/>
    <line x1="400.00" y1="108.14" x2="400.00" y2="170.90" stroke="#90be6d" stroke-width="0.5249999999999999"/>
    <line x1="400.00" y1="191.80" x2="400.00" y2="254.56" stroke="#90be6d" stroke-width="0.5249999999999999"/>
    <polygon points="400.00,258.76 401.31,254.56 398.69,254.56" fill="#90be6d" data-arrow="true"/>
    <rect x="369.48" y="170.90" width="61.04" height="20.90" fill="#FFFFFF" fill-opacity="0.75" stroke="none" rx="2"/>
    <text transform="translate(400.00, 185.90)" fill="#90be6d" font-family="Inter, system-ui, -apple-system, sans-serif" font-size="13.00px" text-anchor="middle">16" × 20"</text>
  </g>
  <g id="mat-cut-geom">
    <g class="dimension">
      <line x1="281.16" y1="260.74" x2="281.16" y2="317.70" stroke="#f3722c" stroke-width="0.5"/>
      <line x1="304.95" y1="260.74" x2="304.95" y2="317.70" stroke="#f3722c" stroke-width="0.5"/>
        <polygon points="281.16,313.70 287.16,315.57 287.16,311.82" fill="#f3722c" data-arrow="true"/>
        <line x1="287.16" y1="313.70" x2="298.95" y2="313.70" stroke="#f3722c" stroke-width="0.75"/>
        <polygon points="304.95,313.70 298.95,311.82 298.95,315.57" fill="#f3722c" data-arrow="true"/>
      <rect x="279.16" y="338.70" width="125.30" height="15.00" fill="#FFFFFF" stroke="none"/>
          <polygon points="281.16,313.70 287.16,315.57 287.16,311.82" fill="#f3722c" data-arrow="true"/>
          <polygon points="304.95,313.70 298.95,311.82 298.95,315.57" fill="#f3722c" data-arrow="true"/>
    </g>
  </g>
  <g id="mat-cut-labels">
      <text transform="translate(281.16, 342.95)" fill="#f3722c" font-family="Inter, system-ui, -apple-system, sans-serif" font-size="13px" text-anchor="start">Mat Cut:</text>
      <text transform="translate(281.16, 358.55)" fill="#f3722c" font-family="Inter, system-ui, -apple-system, sans-serif" font-size="13px" text-anchor="start">2 3/8" (2" visible)</text>
  </g>
  <g id="overlay-card">
    <rect x="620.85" y="71.00" width="247.06" height="106.00" fill="#FFFFFF" stroke="#999" stroke-width="0.75" rx="4"/>
    <text transform="translate(744.38, 85.00)" fill="#555" font-family="Inter, system-ui, -apple-system, sans-serif" font-size="10.8" font-weight="bold" text-anchor="middle">Joinery &amp; Hanging</text>
    <rect x="630.85" y="97.00" width="7" height="7" rx="1.5" fill="#f3722c"/>
    <text transform="translate(642.85, 104.70)" fill="#f3722c" font-family="Inter, system-ui, -apple-system, sans-serif" font-size="12px" text-anchor="start">hook 1.80" below top</text>
    <rect x="630.85" y="116.00" width="7" height="7" rx="1.5" fill="#577590"/>
    <text transform="translate(642.85, 123.70)" fill="#577590" font-family="Inter, system-ui, -apple-system, sans-serif" font-size="12px" text-anchor="start">hangers 7.58" from top</text>
    <rect x="630.85" y="135.00" width="7" height="7" rx="1.5" fill="#577590"/>
    <text transform="translate(642.85, 142.70)" fill="#577590" font-family="Inter, system-ui, -apple-system, sans-serif" font-size="12px" text-anchor="start">wire cut 33.78"</text>
    <rect x="630.85" y="154.00" width="7" height="7" rx="1.5" fill="#46af8f"/>
    <text transform="translate(642.85, 161.70)" fill="#46af8f" font-family="Inter, system-ui, -apple-system, sans-serif" font-size="12px" text-anchor="start">spline slots (dashed) · max 1" deep</text>
  </g>
</g>
  <g id="section-view" transform="translate(8.95, 190.04) scale(0.9776)">
    <g id="section-content" transform="translate(-9.15, 0)">
<g id="section-geometry">
    <rect x="394.44" y="279.30" width="177.22" height="17.58" stroke="#333333" stroke-width="0.5" fill="#B8D4E3"/>
    <rect x="394.44" y="296.88" width="177.22" height="10.40" stroke="#333333" stroke-width="0.5" fill="#F5F0E1"/>
    <rect x="394.44" y="307.28" width="177.22" height="1.51" stroke="#333333" stroke-width="0.5" fill="#E8E8E8"/>
    <rect x="394.44" y="308.79" width="177.22" height="23.63" stroke="#333333" stroke-width="0.5" fill="#A0A0A0"/>
    <rect x="394.44" y="332.42" width="177.22" height="11.81" stroke="#577590" stroke-width="0.5" stroke-dasharray="4,2" fill="none" opacity="0.7"/>
    <polygon points="181.78,208.41 465.33,208.41 465.33,279.30 394.44,279.30 394.44,350.19 181.78,350.19" stroke="#333333" stroke-width="2.5" fill="#8B6914"/>
  <g id="spline-slots">
    <path d="M180.53,267.49 L370.81,267.49 L370.81,291.11 L180.53,291.11 Z" fill="#46af8f" fill-opacity="0.85" stroke="#2e7a63" stroke-width="0.8"/>
  </g>
  </g>
  <g id="section-dimensions">
    <line x1="175.78" y1="208.41" x2="159.78" y2="208.41" stroke="#333333" stroke-width="0.5"/>
    <line x1="175.78" y1="350.19" x2="159.78" y2="350.19" stroke="#333333" stroke-width="0.5"/>
    <polygon points="163.78,208.41 161.90,214.41 165.65,214.41" fill="#333333" data-arrow="true"/>
    <line x1="163.78" y1="214.41" x2="163.78" y2="344.19" stroke="#333333" stroke-width="0.75"/>
    <polygon points="163.78,350.19 165.65,344.19 161.90,344.19" fill="#333333" data-arrow="true"/>
    <text x="151.78" y="279.30" fill="#333333" font-family="Inter, system-ui, -apple-system, sans-serif" font-size="10px" text-anchor="middle" transform="rotate(-90 151.78 279.30)">Depth: 3/4"</text>
    <line x1="181.78" y1="202.41" x2="181.78" y2="172.41" stroke="#333333" stroke-width="0.5"/>
    <line x1="465.33" y1="202.41" x2="465.33" y2="172.41" stroke="#333333" stroke-width="0.5"/>
    <polygon points="181.78,176.41 187.78,178.29 187.78,174.54" fill="#333333" data-arrow="true"/>
    <line x1="187.78" y1="176.41" x2="459.33" y2="176.41" stroke="#333333" stroke-width="0.75"/>
    <polygon points="465.33,176.41 459.33,174.54 459.33,178.29" fill="#333333" data-arrow="true"/>
    <text transform="translate(323.55, 164.41)" fill="#333333" font-family="Inter, system-ui, -apple-system, sans-serif" font-size="10px" text-anchor="middle">Width: 1 1/2"</text>
    <rect x="394.44" y="279.30" width="70.89" height="70.89" fill="#FFFFFF" fill-opacity="0.5" stroke="none" rx="1"/>
    <polygon points="394.44,314.74 398.64,316.06 398.64,313.43" fill="#333333" data-arrow="true"/>
    <line x1="398.64" y1="314.74" x2="461.13" y2="314.74" stroke="#333333" stroke-width="0.5249999999999999"/>
    <polygon points="465.33,314.74 461.13,313.43 461.13,316.06" fill="#333333" data-arrow="true"/>
    <polygon points="429.89,279.30 428.57,283.50 431.20,283.50" fill="#333333" data-arrow="true"/>
    <line x1="429.89" y1="283.50" x2="429.89" y2="345.99" stroke="#333333" stroke-width="0.5249999999999999"/>
    <polygon points="429.89,350.19 431.20,345.99 428.57,345.99" fill="#333333" data-arrow="true"/>
    <polygon points="371.71,279.30 373.81,280.00 373.81,278.60" fill="#46af8f" data-arrow="true"/>
    <line x1="373.81" y1="279.30" x2="380.81" y2="279.30" stroke="#46af8f" stroke-width="0.35"/>
    <line x1="380.81" y1="279.30" x2="584.66" y2="246.72" stroke="#46af8f" stroke-width="0.35"/>
    <text transform="translate(589.66, 249.69)" fill="#46af8f" font-family="Inter, system-ui, -apple-system, sans-serif" font-size="8.5px">Spline 1/8"</text>
    <text transform="translate(589.66, 259.47)" fill="#46af8f" font-family="Inter, system-ui, -apple-system, sans-serif" font-size="8.5px">max 1" deep</text>
    <text transform="translate(589.66, 269.24)" fill="#46af8f" font-family="Inter, system-ui, -apple-system, sans-serif" font-size="8.5px">(limited by rabbet)</text>
    <polygon points="572.56,288.09 574.66,288.79 574.66,287.39" fill="#333333" data-arrow="true"/>
    <line x1="574.66" y1="288.09" x2="581.66" y2="288.09" stroke="#333333" stroke-width="0.35"/>
    <line x1="581.66" y1="288.09" x2="584.66" y2="279.27" stroke="#333333" stroke-width="0.35"/>
    <text transform="translate(589.66, 282.24)" fill="#333333" font-family="Inter, system-ui, -apple-system, sans-serif" font-size="8.5px">Glazing: 3/32"</text>
    <polygon points="572.56,302.08 574.66,302.78 574.66,301.38" fill="#333333" data-arrow="true"/>
    <line x1="574.66" y1="302.08" x2="581.66" y2="302.08" stroke="#333333" stroke-width="0.35"/>
    <line x1="581.66" y1="302.08" x2="584.66" y2="292.27" stroke="#333333" stroke-width="0.35"/>
    <text transform="translate(589.66, 295.24)" fill="#333333" font-family="Inter, system-ui, -apple-system, sans-serif" font-size="8.5px">Mat: 0.06"</text>
    <polygon points="572.56,308.03 574.66,308.73 574.66,307.33" fill="#333333" data-arrow="true"/>
    <line x1="574.66" y1="308.03" x2="581.66" y2="308.03" stroke="#333333" stroke-width="0.35"/>
    <line x1="581.66" y1="308.03" x2="584.66" y2="305.27" stroke="#333333" stroke-width="0.35"/>
    <text transform="translate(589.66, 308.24)" fill="#333333" font-family="Inter, system-ui, -apple-system, sans-serif" font-size="8.5px">Artwork: 0.01"</text>
    <polygon points="572.56,320.60 574.66,321.30 574.66,319.90" fill="#333333" data-arrow="true"/>
    <line x1="574.66" y1="320.60" x2="581.66" y2="320.60" stroke="#333333" stroke-width="0.35"/>
    <line x1="581.66" y1="320.60" x2="584.66" y2="318.27" stroke="#333333" stroke-width="0.35"/>
    <text transform="translate(589.66, 321.24)" fill="#333333" font-family="Inter, system-ui, -apple-system, sans-serif" font-size="8.5px">Backing: 1/8"</text>
    <line x1="589.66" y1="324.77" x2="653.22" y2="324.77" stroke="#577590" stroke-width="0.5"/>
    <text transform="translate(589.66, 334.24)" fill="#577590" font-family="Inter, system-ui, -apple-system, sans-serif" font-size="8.5px" font-weight="600">Total: 9/32"</text>
    <polygon points="572.56,338.33 574.66,339.03 574.66,337.63" fill="#333333" data-arrow="true"/>
    <line x1="574.66" y1="338.33" x2="581.66" y2="338.33" stroke="#333333" stroke-width="0.35"/>
    <line x1="581.66" y1="338.33" x2="584.66" y2="344.27" stroke="#333333" stroke-width="0.35"/>
    <text transform="translate(589.66, 347.24)" fill="#333333" font-family="Inter, system-ui, -apple-system, sans-serif" font-size="8.5px">Margin: 1/16"</text>
    <line x1="429.89" y1="352.19" x2="429.89" y2="360.19" stroke="#333333" stroke-width="0.5" stroke-dasharray="3,2"/>
    <text transform="translate(429.89, 370.19)" fill="#90be6d" font-family="Inter, system-ui, -apple-system, sans-serif" font-size="10px" text-anchor="middle">Rabbet: 3/8"</text>
    <text transform="translate(429.89, 382.19)" fill="#90be6d" font-family="Inter, system-ui, -apple-system, sans-serif" font-size="10px" text-anchor="middle">(clearance: 1/32")</text>
  </g>
  </g>
  <g id="legend">
    <rect x="224.50" y="396.51" width="12" height="12" fill="#8B6914" stroke="#333333" stroke-width="0.5"/>    <text transform="translate(244.50, 406.51)" fill="#577590" font-family="Inter, system-ui, -apple-system, sans-serif" font-size="10px">Frame</text>
    <rect x="288.00" y="396.51" width="12" height="12" fill="#B8D4E3" stroke="#333333" stroke-width="0.5"/>    <text transform="translate(308.00, 406.51)" fill="#577590" font-family="Inter, system-ui, -apple-system, sans-serif" font-size="10px">Glazing</text>
    <rect x="362.50" y="396.51" width="12" height="12" fill="#F5F0E1" stroke="#333333" stroke-width="0.5"/>    <text transform="translate(382.50, 406.51)" fill="#577590" font-family="Inter, system-ui, -apple-system, sans-serif" font-size="10px">Matboard</text>
    <rect x="442.50" y="396.51" width="12" height="12" fill="#E8E8E8" stroke="#333333" stroke-width="0.5"/>    <text transform="translate(462.50, 406.51)" fill="#577590" font-family="Inter, system-ui, -apple-system, sans-serif" font-size="10px">Artwork</text>
    <rect x="517.00" y="396.51" width="12" height="12" fill="#A0A0A0" stroke="#333333" stroke-width="0.5"/>    <text transform="translate(537.00, 406.51)" fill="#577590" font-family="Inter, system-ui, -apple-system, sans-serif" font-size="10px">Backing</text>
  </g>
</g>
</svg>