<svg viewBox="10.36 110.70 779.28 362.60" xmlns="http://www.w3.org/2000/svg">
  <defs>
    <pattern id="hatch" patternUnits="userSpaceOnUse" width="4" height="4"><path d="M-1,1 l2,-2 M0,4 l4,-4 M3,5 l2,-2" stroke="#CCCCCC" stroke-width="0.5"/></pattern>
  </defs>
    <g id="section-content" transform="translate(-53.00, 0)">
<g id="section-geometry">
    <rect x="409.06" y="286.80" width="281.25" height="27.90" stroke="#333333" stroke-width="0.5" fill="#B8D4E3"/>
    <rect x="409.06" y="314.70" width="281.25" height="2.40" stroke="#333333" stroke-width="0.5" fill="#E8E8E8"/>
    <rect x="409.06" y="317.10" width="281.25" height="37.50" stroke="#333333" stroke-width="0.5" fill="#A0A0A0"/>
    <rect x="409.06" y="354.60" width="281.25" height="18.75" stroke="#577590" stroke-width="0.5" stroke-dasharray="4,2" fill="none" opacity="0.7"/>
    <polygon points="109.06,174.30 409.06,174.30 409.06,286.80 409.06,286.80 409.06,399.30 109.06,399.30" stroke="#333333" stroke-width="2.5" fill="#8B6914"/>
  </g>
  <g id="section-dimensions">
    <line x1="103.06" y1="174.30" x2="87.06" y2="174.30" stroke="#333333" stroke-width="0.5"/>
    <line x1="103.06" y1="399.30" x2="87.06" y2="399.30" stroke="#333333" stroke-width="0.5"/>
    <polygon points="91.06,174.30 89.19,180.30 92.94,180.30" fill="#333333" data-arrow="true"/>
    <line x1="91.06" y1="180.30" x2="91.06" y2="393.30" stroke="#333333" stroke-width="0.75"/>
    <polygon points="91.06,399.30 92.94,393.30 89.19,393.30" fill="#333333" data-arrow="true"/>
    <text x="77.86" y="286.80" fill="#333333" font-family="Inter, system-ui, -apple-system, sans-serif" font-size="13px" text-anchor="middle" transform="rotate(-90 77.86 286.80)">Depth: 3/4"</text>
    <line x1="109.06" y1="168.30" x2="109.06" y2="138.30" stroke="#333333" stroke-width="0.5"/>
    <line x1="409.06" y1="168.30" x2="409.06" y2="138.30" stroke="#333333" stroke-width="0.5"/>
    <polygon points="109.06,142.30 115.06,144.18 115.06,140.43" fill="#333333" data-arrow="true"/>
    <line x1="115.06" y1="142.30" x2="403.06" y2="142.30" stroke="#333333" stroke-width="0.75"/>
    <polygon points="409.06,142.30 403.06,140.43 403.06,144.18" fill="#333333" data-arrow="true"/>
    <text transform="translate(259.06, 129.10)" fill="#333333" font-family="Inter, system-ui, -apple-system, sans-serif" font-size="13px" text-anchor="middle">Width: 1"</text>
    <rect x="409.06" y="286.80" width="0.00" height="112.50" fill="#FFFFFF" fill-opacity="0.5" stroke="none" rx="1"/>
    <polygon points="417.46,343.05 413.26,341.74 413.26,344.36" fill="#333333" data-arrow="true"/>
    <line x1="413.26" y1="343.05" x2="404.86" y2="343.05" stroke="#333333" stroke-width="0.5249999999999999"/>
    <polygon points="400.66,343.05 404.86,344.36 404.86,341.74" fill="#333333" data-arrow="true"/>
    <polygon points="409.06,286.80 407.75,291.00 410.37,291.00" fill="#333333" data-arrow="true"/>
    <line x1="409.06" y1="291.00" x2="409.06" y2="395.10" stroke="#333333" stroke-width="0.5249999999999999"/>
    <polygon points="409.06,399.30 410.37,395.10 407.75,395.10" fill="#333333" data-arrow="true"/>
    <polygon points="691.21,300.75 693.31,301.45 693.31,300.05" fill="#333333" data-arrow="true"/>
    <line x1="693.31" y1="300.75" x2="700.31" y2="300.75" stroke="#333333" stroke-width="0.35"/>
    <line x1="700.31" y1="300.75" x2="703.31" y2="298.88" stroke="#333333" stroke-width="0.35"/>
    <text transform="translate(708.31, 302.73)" fill="#333333" font-family="Inter, system-ui, -apple-system, sans-serif" font-size="11.0px">Glazing: 3/32"</text>
    <polygon points="691.21,315.90 693.31,316.60 693.31,315.20" fill="#333333" data-arrow="true"/>
    <line x1="693.31" y1="315.90" x2="700.31" y2="315.90" stroke="#333333" stroke-width="0.35"/>
    <line x1="700.31" y1="315.90" x2="703.31" y2="319.68" stroke="#333333" stroke-width="0.35"/>
    <text transform="translate(708.31, 323.53)" fill="#333333" font-family="Inter, system-ui, -apple-system, sans-serif" font-size="11.0px">Artwork: 0.01"</text>
    <polygon points="691.21,335.85 693.31,336.55 693.31,335.15" fill="#333333" data-arrow="true"/>
    <line x1="693.31" y1="335.85" x2="700.31" y2="335.85" stroke="#333333" stroke-width="0.35"/>
    <line x1="700.31" y1="335.85" x2="703.31" y2="340.48" stroke="#333333" stroke-width="0.35"/>
    <text transform="translate(708.31, 344.33)" fill="#333333" font-family="Inter, system-ui, -apple-system, sans-serif" font-size="11.0px">Backing: 1/8"</text>
    <polygon points="691.21,363.97 693.31,364.67 693.31,363.27" fill="#333333" data-arrow="true"/>
    <line x1="693.31" y1="363.97" x2="700.31" y2="363.97" stroke="#333333" stroke-width="0.35"/>
    <line x1="700.31" y1="363.97" x2="703.31" y2="361.27" stroke="#333333" stroke-width="0.35"/>
    <text transform="translate(708.31, 365.12)" fill="#333333" font-family="Inter, system-ui, -apple-system, sans-serif" font-size="11.0px">Margin: 1/16"</text>
    <line x1="800.94" y1="286.80" x2="814.94" y2="286.80" stroke="#333333" stroke-width="0.5"/>
    <line x1="800.94" y1="354.60" x2="814.94" y2="354.60" stroke="#333333" stroke-width="0.5"/>
    <polygon points="810.94,286.80 809.06,292.80 812.81,292.80" fill="#333333" data-arrow="true"/>
    <line x1="810.94" y1="292.80" x2="810.94" y2="348.60" stroke="#333333" stroke-width="0.75"/>
    <polygon points="810.94,354.60 812.81,348.60 809.06,348.60" fill="#333333" data-arrow="true"/>
    <text x="828.14" y="320.70" fill="#333333" font-family="Inter, system-ui, -apple-system, sans-serif" font-size="13px" text-anchor="middle" transform="rotate(-90 828.14 320.70)">0.23"</text>
    <line x1="409.06" y1="401.30" x2="409.06" y2="411.30" stroke="#333333" stroke-width="0.5" stroke-dasharray="3,2"/>
    <text transform="translate(409.06, 417.30)" fill="#90be6d" font-family="Inter, system-ui, -apple-system, sans-serif" font-size="13px" text-anchor="middle">Sight-size — no lip · depth 3/8"</text>
    <text transform="translate(409.06, 432.90)" fill="#90be6d" font-family="Inter, system-ui, -apple-system, sans-serif" font-size="13px" text-anchor="middle">(clearance: 0.09")</text>
  </g>
  </g>
  <g id="legend">
    <rect x="243.05" y="439.70" width="12" height="12" fill="#8B6914" stroke="#333333" stroke-width="0.5"/>    <text transform="translate(263.05, 449.70)" fill="#577590" font-family="Inter, system-ui, -apple-system, sans-serif" font-size="13px">Frame</text>
    <rect x="314.80" y="439.70" width="12" height="12" fill="#B8D4E3" stroke="#333333" stroke-width="0.5"/>    <text transform="translate(334.80, 449.70)" fill="#577590" font-family="Inter, system-ui, -apple-system, sans-serif" font-size="13px">Glazing</text>
    <rect x="400.85" y="439.70" width="12" height="12" fill="#E8E8E8" stroke="#333333" stroke-width="0.5"/>    <text transform="translate(420.85, 449.70)" fill="#577590" font-family="Inter, system-ui, -apple-system, sans-serif" font-size="13px">Artwork</text>
    <rect x="486.90" y="439.70" width="12" height="12" fill="#A0A0A0" stroke="#333333" stroke-width="0.5"/>    <text transform="translate(506.90, 449.70)" fill="#577590" font-family="Inter, system-ui, -apple-system, sans-serif" font-size="13px">Backing</text>
  </g>
</svg>