<svg viewBox="148.00 -8.10 403.27 643.88" xmlns="http://www.w3.org/2000/svg">
  <defs>
    <pattern id="hatch" patternUnits="userSpaceOnUse" width="4" height="4"><path d="M-1,1 l2,-2 M0,4 l4,-4 M3,5 l2,-2" stroke="#CCCCCC" stroke-width="0.5"/></pattern>
  </defs>
  <g id="rabbet-overlap">
    <path d="M299.18,85.85 h151.64 v502.31 h-151.64 Z M306.29,92.95 v488.09 h137.42 v-488.09 Z" fill="#90be6d" fill-opacity="0.15" fill-rule="evenodd" stroke="none"/>
  </g>
  <g id="plan-axis-breaks">
    <rect x="287.33" y="74.00" width="175.33" height="526.00" fill="none" stroke="#333333" stroke-width="2.5"/>
    <rect x="306.29" y="92.95" width="137.42" height="488.09" fill="none" stroke="#333333" stroke-width="2.5"/>
    <rect x="299.18" y="85.85" width="151.64" height="502.31" fill="none" stroke="#90be6d" stroke-width="0.5" stroke-dasharray="6,3" opacity="0.50"/>
    <rect x="299.18" y="85.85" width="151.64" height="502.31" fill="none" stroke="#90be6d" stroke-width="0.4" stroke-dasharray="4,2" opacity="0.50"/>
    <path d="M279.33,207.42 L313.63,203.92 L436.37,210.92 L470.67,207.42 L470.67,215.42 L436.37,218.92 L313.63,211.92 L279.33,215.42 Z" fill="#FFFFFF" stroke="none"/>
    <path d="M279.33,207.42 L313.63,203.92 L436.37,210.92 L470.67,207.42" stroke="#333333" stroke-width="1.25" fill="none" stroke-dasharray="4,3" stroke-linecap="round" stroke-linejoin="round" opacity="0.34"/>
    <path d="M279.33,215.42 L313.63,211.92 L436.37,218.92 L470.67,215.42" stroke="#333333" stroke-width="1.25" fill="none" stroke-dasharray="4,3" stroke-linecap="round" stroke-linejoin="round" opacity="0.34"/>
  </g>
  <g id="dimensions">
    <g class="dimension">
      <line x1="307.54" y1="88.20" x2="307.54" y2="48.00" stroke="#46af8f" stroke-width="0.5"/>
      <line x1="442.46" y1="88.20" x2="442.46" y2="48.00" stroke="#46af8f" stroke-width="0.5"/>
        <polygon points="307.54,52.00 313.54,53.88 313.54,50.12" fill="#46af8f" data-arrow="true"/>
        <line x1="313.54" y1="52.00" x2="436.46" y2="52.00" stroke="#46af8f" stroke-width="0.75"/>
        <polygon points="442.46,52.00 436.46,50.12 436.46,53.88" fill="#46af8f" data-arrow="true"/>
      <rect x="347.10" y="44.50" width="55.80" height="15.00" fill="#FFFFFF" stroke="none"/>
          <polygon points="307.54,52.00 313.54,53.88 313.54,50.12" fill="#46af8f" data-arrow="true"/>
          <polygon points="442.46,52.00 436.46,50.12 436.46,53.88" fill="#46af8f" data-arrow="true"/>
    </g>
    <g class="dimension">
      <line x1="286.08" y1="66.75" x2="286.08" y2="20.00" stroke="#577590" stroke-width="0.5"/>
      <line x1="463.92" y1="66.75" x2="463.92" y2="20.00" stroke="#577590" stroke-width="0.5"/>
        <polygon points="286.08,24.00 292.08,25.88 292.08,22.12" fill="#577590" data-arrow="true"/>
        <line x1="292.08" y1="24.00" x2="457.92" y2="24.00" stroke="#577590" stroke-width="0.75"/>
        <polygon points="463.92,24.00 457.92,22.12 457.92,25.88" fill="#577590" data-arrow="true"/>
      <rect x="342.28" y="16.50" width="65.44" height="15.00" fill="#FFFFFF" stroke="none"/>
          <polygon points="286.08,24.00 292.08,25.88 292.08,22.12" fill="#577590" data-arrow="true"/>
          <polygon points="463.92,24.00 457.92,22.12 457.92,25.88" fill="#577590" data-arrow="true"/>
    </g>
    <g class="dimension">
      <line x1="448.46" y1="94.20" x2="488.67" y2="94.20" stroke="#46af8f" stroke-width="0.5"/>
      <line x1="448.46" y1="579.80" x2="488.67" y2="579.80" stroke="#46af8f" stroke-width="0.5"/>
        <polygon points="484.67,94.20 482.79,100.20 486.54,100.20" fill="#46af8f" data-arrow="true"/>
        <line x1="484.67" y1="100.20" x2="484.67" y2="573.80" stroke="#46af8f" stroke-width="0.75"/>
        <polygon points="484.67,579.80 486.54,573.80 482.79,573.80" fill="#46af8f" data-arrow="true"/>
      <rect x="475.87" y="311.10" width="17.60" height="51.80" fill="#FFFFFF" stroke="none"/>
          <polygon points="484.67,94.20 482.79,100.20 486.54,100.20" fill="#46af8f" data-arrow="true"/>
          <polygon points="484.67,579.80 486.54,573.80 482.79,573.80" fill="#46af8f" data-arrow="true"/>
    </g>
    <g class="dimension">
      <line x1="469.92" y1="72.75" x2="516.67" y2="72.75" stroke="#577590" stroke-width="0.5"/>
      <line x1="469.92" y1="601.25" x2="516.67" y2="601.25" stroke="#577590" stroke-width="0.5"/>
        <polygon points="512.67,72.75 510.79,78.75 514.54,78.75" fill="#577590" data-arrow="true"/>
        <line x1="512.67" y1="78.75" x2="512.67" y2="595.25" stroke="#577590" stroke-width="0.75"/>
        <polygon points="512.67,601.25 514.54,595.25 510.79,595.25" fill="#577590" data-arrow="true"/>
      <rect x="505.17" y="306.28" width="15.00" height="61.44" fill="#FFFFFF" stroke="none"/>
          <polygon points="512.67,72.75 510.79,78.75 514.54,78.75" fill="#577590" data-arrow="true"/>
          <polygon points="512.67,601.25 514.54,595.25 510.79,595.25" fill="#577590" data-arrow="true"/>
    </g>
      <text transform="translate(375.00, 44.20)" fill="#46af8f" font-family="Inter, system-ui, -apple-system, sans-serif" font-size="13px" text-anchor="middle" dominant-baseline="central">Inside:</text>
      <text transform="translate(375.00, 59.80)" fill="#46af8f" font-family="Inter, system-ui, -apple-system, sans-serif" font-size="13px" text-anchor="middle" dominant-baseline="central">7 1/4&quot;</text>
      <text transform="translate(375.00, 8.40)" fill="#577590" font-family="Inter, system-ui, -apple-system, sans-serif" font-size="13px" text-anchor="middle" dominant-baseline="central">Outside:</text>
      <text transform="translate(375.00, 24.00)" fill="#577590" font-family="Inter, system-ui, -apple-system, sans-serif" font-size="13px" text-anchor="middle" dominant-baseline="central">9 1/4&quot;</text>
      <text transform="rotate(90 492.47 337.00)" x="492.47" y="337.00" fill="#46af8f" font-family="Inter, system-ui, -apple-system, sans-serif" font-size="13px" text-anchor="middle" dominant-baseline="central">Inside:</text>
      <text transform="rotate(90 476.87 337.00)" x="476.87" y="337.00" fill="#46af8f" font-family="Inter, system-ui, -apple-system, sans-serif" font-size="13px" text-anchor="middle" dominant-baseline="central">59 1/4&quot;</text>
      <text transform="rotate(90 528.27 337.00)" x="528.27" y="337.00" fill="#577590" font-family="Inter, system-ui, -apple-system, sans-serif" font-size="13px" text-anchor="middle" dominant-baseline="central">Outside:</text>
      <text transform="rotate(90 512.67 337.00)" x="512.67" y="337.00" fill="#577590" font-family="Inter, system-ui, -apple-system, sans-serif" font-size="13px" text-anchor="middle" dominant-baseline="central">61 1/4&quot;</text>
  </g>
  <g id="artwork-indicator">
    <polygon points="299.38,337.00 303.58,338.31 303.58,335.69" fill="#90be6d" data-arrow="true"/>
    <line x1="303.58" y1="337.00" x2="347.16" y2="337.00" stroke="#90be6d" stroke-width="0.5249999999999999"/>
    <line x1="402.84" y1="337.00" x2="446.42" y2="337.00" stroke="#90be6d" stroke-width="0.5249999999999999"/>
    <polygon points="450.62,337.00 446.42,335.69 446.42,338.31" fill="#90be6d" data-arrow="true"/>
    <polygon points="375.00,86.05 373.69,90.25 376.31,90.25" fill="#90be6d" data-arrow="true"/>
    <line x1="375.00" y1="90.25" x2="375.00" y2="207.42" stroke="#90be6d" stroke-width="0.5249999999999999"/>
    <path d="M 375.00,207.42 L 379.00,209.42 L 371.00,213.42 L 375.00,215.42" stroke="#90be6d" stroke-width="0.5249999999999999" fill="none"/>
    <line x1="375.00" y1="215.42" x2="375.00" y2="583.75" stroke="#90be6d" stroke-width="0.5249999999999999"/>
    <polygon points="375.00,587.95 376.31,583.75 373.69,583.75" fill="#90be6d" data-arrow="true"/>
    <rect x="347.16" y="326.55" width="55.69" height="20.90" fill="#FFFFFF" fill-opacity="0.75" stroke="none" rx="2"/>
    <text transform="translate(375.00, 341.55)" fill="#90be6d" font-family="Inter, system-ui, -apple-system, sans-serif" font-size="13.00px" text-anchor="middle">60&quot; × 8&quot;</text>
  </g>
  <g id="corner-detail">
    <defs><clipPath id="corner-detail-clip"><rect x="160.00" y="466.57" width="205.00" height="157.22"/></clipPath></defs>
    <rect x="156.00" y="442.57" width="213.00" height="185.22" fill="#FFFFFF" stroke="#999" stroke-width="0.75" rx="4"/>
    <text transform="translate(262.50, 458.37)" fill="#555" font-family="Inter, system-ui, -apple-system, sans-serif" font-size="10.8" font-weight="bold" text-anchor="middle">Corner Detail</text>
    <g clip-path="url(#corner-detail-clip)">
    <path d="M247.86,472.57 V555.37 H353.00 V538.60 H264.63 V472.57 H247.86 Z" fill="#90be6d" fill-opacity="0.10" stroke="none"/>
    <line x1="247.86" y1="555.37" x2="353.00" y2="555.37" stroke="#90be6d" stroke-width="1" stroke-dasharray="6,3" opacity="0.7"/>
    <line x1="247.86" y1="555.37" x2="247.86" y2="472.57" stroke="#90be6d" stroke-width="1" stroke-dasharray="6,3" opacity="0.7"/>
    <polyline points="219.90,472.57 219.90,583.33 353.00,583.33" fill="none" stroke="#333333" stroke-width="2.5" stroke-linejoin="miter"/>
    <polyline points="264.63,472.57 264.63,538.60 353.00,538.60" fill="none" stroke="#333333" stroke-width="2.5" stroke-linejoin="miter"/>
    </g>
    <defs><clipPath id="corner-detail-annot-clip"><rect x="158.00" y="444.57" width="209.00" height="181.22"/></clipPath></defs>
    <g clip-path="url(#corner-detail-annot-clip)">
    <line x1="219.90" y1="583.33" x2="219.90" y2="601.33" stroke="#577590" stroke-width="0.5" opacity="0.5"/>
    <line x1="264.63" y1="583.33" x2="264.63" y2="601.33" stroke="#577590" stroke-width="0.5" opacity="0.5"/>
    <polygon points="219.90,599.33 225.90,601.21 225.90,597.46" fill="#577590" data-arrow="true"/>
    <line x1="225.90" y1="599.33" x2="258.63" y2="599.33" stroke="#577590" stroke-width="0.75"/>
    <polygon points="264.63,599.33 258.63,597.46 258.63,601.21" fill="#577590" data-arrow="true"/>
    <text transform="translate(242.26, 610.33)" font-family="Inter, system-ui, -apple-system, sans-serif" font-size="9.0px" fill="#577590" font-weight="bold" text-anchor="middle">Frame: 1&quot;</text>
    <line x1="247.86" y1="538.60" x2="208.90" y2="538.60" stroke="#46af8f" stroke-width="0.5" opacity="0.5"/>
    <line x1="247.86" y1="555.37" x2="208.90" y2="555.37" stroke="#46af8f" stroke-width="0.5" opacity="0.5"/>
    <polygon points="210.90,538.60 209.03,544.60 212.78,544.60" fill="#46af8f" data-arrow="true"/>
    <line x1="210.90" y1="544.60" x2="210.90" y2="549.37" stroke="#46af8f" stroke-width="0.75"/>
    <polygon points="210.90,555.37 212.78,549.37 209.03,549.37" fill="#46af8f" data-arrow="true"/>
    <text transform="translate(206.90, 545.99)" fill="#46af8f" font-family="Inter, system-ui, -apple-system, sans-serif" font-size="9.0" text-anchor="end" font-weight="bold">Rabbet</text>
    <text transform="translate(206.90, 555.99)" fill="#46af8f" font-family="Inter, system-ui, -apple-system, sans-serif" font-size="9.0" text-anchor="end" font-weight="bold">3/8&quot;</text>
    <line x1="300.43" y1="555.37" x2="300.43" y2="498.62" stroke="#90be6d" stroke-width="0.5" opacity="0.5"/>
    <rect x="281.78" y="490.33" width="37.29" height="9.72" fill="#FFFFFF" stroke="none" rx="1"/>
    <text transform="translate(300.43, 497.41)" fill="#90be6d" font-family="Inter, system-ui, -apple-system, sans-serif" font-size="8.1" text-anchor="middle" font-weight="bold" opacity="0.8">artwork</text>
    </g>
  </g>
  <g id="thumbnail">
    <rect x="248.99" y="289.50" width="14.35" height="95.00" stroke="#999" stroke-width="0.75" fill="none"/>
    <text transform="translate(256.16, 394.50)" fill="#999" font-family="Inter, system-ui, -apple-system, sans-serif" font-size="8.0px" text-anchor="middle">Actual</text>
    <text transform="translate(256.16, 404.50)" fill="#999" font-family="Inter, system-ui, -apple-system, sans-serif" font-size="8.0px" text-anchor="middle">proportions</text>
  </g>
</svg>